<?xml version="1.0" standalone="no"?>
<!DOCTYPE svg PUBLIC "-//W3C//DTD SVG 1.1//EN" "http://www.w3.org/Graphics/SVG/1.1/DTD/svg11.dtd" >
<!--
2013-9-30: Created.
-->
<svg>
<metadata>
Created by iconfont
</metadata>
<defs>

<font id="iconfont" horiz-adv-x="1024" >
  <font-face
    font-family="iconfont"
    font-weight="500"
    font-stretch="normal"
    units-per-em="1024"
    ascent="896"
    descent="-128"
  />
    <missing-glyph />
    
    <glyph glyph-name="fill-pause" unicode="&#59278;" d="M512 768c200.298667 0 362.666667-162.368 362.666667-362.666667s-162.368-362.666667-362.666667-362.666666S149.333333 205.034667 149.333333 405.333333 311.701333 768 512 768z m-42.666667-234.666667h-64v-277.333333h64V533.333333z m138.666667 0h-64v-277.333333h64V533.333333z"  horiz-adv-x="1024" />

    
    <glyph glyph-name="sort2" unicode="&#59449;" d="M695.04 286.29333299999996L512 102.82666700000004l-183.04 183.466666a42.666667 42.666667 0 0 1-60.586667-60.586666l213.333334-213.333334a42.666667 42.666667 0 0 1 60.586666 0l213.333334 213.333334a42.666667 42.666667 0 0 1-60.586667 60.586666zM328.96 481.706667L512 665.173333l183.04-183.466666a42.666667 42.666667 0 0 1 60.586667 0 42.666667 42.666667 0 0 1 0 60.586666l-213.333334 213.333334a42.666667 42.666667 0 0 1-60.586666 0l-213.333334-213.333334a42.666667 42.666667 0 0 1 60.586667-60.586666z"  horiz-adv-x="1024" />

    
    <glyph glyph-name="play" unicode="&#58899;" d="M912.290909 449.861818L318.603636 792.669091c-50.734545 29.323636-114.036364-7.214545-114.036363-65.861818v-685.614546c0-58.414545 63.301818-95.185455 114.036363-65.861818L912.290909 318.138182c50.734545 29.323636 50.734545 102.4 0 131.723636z"  horiz-adv-x="1024" />

    
    <glyph glyph-name="chevron-down" unicode="&#59314;" d="M500.8 291.221L267.307 524.608l-45.227-45.27 278.741-278.613L779.307 479.34l-45.248 45.248z"  horiz-adv-x="1024" />

    
    <glyph glyph-name="terminal" unicode="&#60927;" d="M415.70133333 380.97066700000005l-211.2 211.2A42.666667 42.666667 0 1 0 264.83200033 652.5013329999999l241.365333-241.365333a42.666667 42.666667 0 0 0 0-60.330667l-241.365333-241.365333a42.666667 42.666667 0 0 0-60.330667 60.330667l211.2 211.2zM487.63733333 170.66666699999996h341.333333a42.666667 42.666667 0 0 0 0-85.333334h-341.333333a42.666667 42.666667 0 0 0 0 85.333334z"  horiz-adv-x="1024" />

    
    <glyph glyph-name="pause" unicode="&#58951;" d="M175.999701 714.45966h25.775396c21.180229 0 38.350129-17.169901 38.35013-38.350129v-463.625673c0-21.180229-17.169901-38.350129-38.35013-38.350129H175.999701c-21.180229 0-38.350129 17.169901-38.350129 38.350129V676.109531c0 21.180229 17.169901 38.350129 38.350129 38.350129z m307.426965 0h25.775396c21.180229 0 38.350129-17.169901 38.35013-38.350129v-463.625673c0-21.180229-17.169901-38.350129-38.35013-38.350129h-25.775396c-21.180229 0-38.350129 17.169901-38.350129 38.350129V676.109531c0 21.180229 17.169901 38.350129 38.350129 38.350129z"  horiz-adv-x="1037" />

    
    <glyph glyph-name="edit" unicode="&#58907;" d="M832.773882 608.43809l-32.543968-32.342442L691.850613 683.856048l32.509187 32.3005c11.985199 11.932004 30.796723 12.509986 42.002414 1.347261l67.769159-67.31598C845.3565 639.03431 844.747828 620.327129 832.773882 608.43809M545.232432 322.677642L436.853131 430.374617 675.34181 667.410669l108.402829-107.75017L545.232432 322.677642zM530.156819 307.652156l-151.760687-43.116436 43.348651 150.834893L530.156819 307.652156zM279.80979 640.0235279999999c-37.456304 0-67.810078-30.365027-67.810078-67.821331l0-409.157051c0-37.476763 30.353774-67.820308 67.810078-67.820308l409.198993 0c37.445051 0 67.799848 30.343544 67.799848 67.820308L756.808631 431.953071l70.125075 67.799848 0-361.66432c0-62.411828-52.922693-113.018501-115.324292-113.018501L254.874725 25.07009800000003C192.450621 25.069074999999998 141.884867 75.67677100000003 141.884867 138.087576L141.884867 590.173858C141.884867 652.585686 192.450621 710.159856 254.874725 710.159856l361.663297 0-67.83156-70.136328L279.80979 640.0235279999999z"  horiz-adv-x="1024" />

    
    <glyph glyph-name="trash" unicode="&#58912;" d="M864.064 576L159.936 576C124.608 576.0319999999999 96 604.672 96 640L96 704C96 739.36 124.64 768 160 768L352 768 352 832C352 867.36 380.64 896 416 896L608 896C643.328 896 672 867.36 672 832L672 768 864 768C899.328 768 928 739.36 928 704L928 640C928 604.672 899.36 576.0319999999999 864.064 576ZM608 800C608 817.664 593.664 832 576 832L448 832C430.336 832 416 817.664 416 800L416 768 608 768 608 800ZM864 512L864 0C864-70.68799999999999 806.688-128 736-128L288-128C217.312-128 160-70.68799999999999 160 0L160 512 864 512ZM640 32C640 14.336000000000013 654.336 0 672 0 689.664 0 704 14.336000000000013 704 32L704 416C704 433.664 689.664 448 672 448 654.336 448 640 433.664 640 416L640 32ZM480 32C480 14.336000000000013 494.336 0 512 0 529.664 0 544 14.336000000000013 544 32L544 416C544 433.664 529.664 448 512 448 494.336 448 480 433.664 480 416L480 32ZM320 32C320 14.336000000000013 334.336 0 352 0 369.664 0 384 14.336000000000013 384 32L384 416C384 433.664 369.664 448 352 448 334.336 448 320 433.664 320 416L320 32Z"  horiz-adv-x="1024" />

    
    <glyph glyph-name="copy" unicode="&#58886;" d="M772.115 210.587h-346.822c-47.886 0-86.705 38.82-86.705 86.707v346.817c0 47.891 38.82 86.71 86.705 86.71h346.822c47.888 0 86.707-38.818 86.707-86.71v-346.817c0-47.887-38.82-86.707-86.707-86.707zM381.587 167.54100000000005c-47.886 0-86.705 38.82-86.705 86.708v303.448h-45.074c-47.886 0-86.705-38.818-86.705-86.71v-346.817c0-47.888 38.82-86.708 86.705-86.708h346.822c47.888 0 86.707 38.82 86.707 86.708v43.371h-301.75z"  horiz-adv-x="1024" />

    
    <glyph glyph-name="gear" unicode="&#58921;" d="M932.979528 437.442297c-3.366072 18.647303-21.293949 37.415385-39.762707 41.621662l-13.831877 3.192779c-32.542195 9.804144-61.597538 31.518195-79.882503 63.277949-18.468759 31.943549-22.680287 68.214154-14.677333 101.475775l4.027733 12.991671c5.597867 18.106421-1.68041 43.013251-16.1792 55.280246 0 0-12.991672 11.011938-49.80841 32.242872-36.811487 21.236185-52.749128 27.007344-52.749128 27.007344-17.870113 6.438072-43.013251 0.304574-55.941908-13.590318l-9.74638-10.408041c-24.7808-23.341949-58.105436-37.656944-94.859159-37.656944a137.804144 137.804144 0 0 0-95.163733 37.956267l-9.321026 10.045703c-12.876144 13.894892-38.077046 20.033641-55.941907 13.595569 0 0-16.000656-5.77641-52.875159-27.007344-36.753723-21.236185-49.745395-32.185108-49.745395-32.185108-14.435774-12.266995-21.714051-37.11081-16.121436-55.280246l4.027733-13.170215a137.856656 137.856656 0 0 0-14.735097-101.297231c-18.405744-31.880533-47.639631-53.6576-80.365621-63.398728l-13.411774-3.072c-18.468759-4.206277-36.391385-22.974359-39.762708-41.621662 0 0-3.003733-16.725333-3.003733-59.250215 0-42.530133 3.003733-59.192451 3.003733-59.192451 3.371323-18.647303 21.293949-37.415385 39.762708-41.621662l13.112451-3.008984a138.071959 138.071959 0 0 0 80.664944-63.519508c18.468759-31.943549 22.680287-68.214154 14.677333-101.481026l-3.969969-12.928656c-5.592615-18.106421 1.685662-43.013251 16.1792-55.280246 0 0 12.996923-11.011938 49.80841-32.242872 36.811487-21.236185 52.754379-27.007344 52.75438-27.007344 17.864862-6.438072 43.008-0.304574 55.941907 13.590318l9.200247 9.924923c24.843815 23.520492 58.346995 38.019282 95.284512 38.019282 36.932267 0 70.498462-14.49879 95.342277-38.077046h0.057764l9.142482-9.867159c12.933908-13.894892 38.077046-20.02839 55.941908-13.590318 0 0 16.000656 5.771159 52.875159 27.007344 36.811487 21.230933 49.745395 32.242872 49.745395 32.242872 14.49879 12.266995 21.777067 37.11081 16.1792 55.280246l-4.090749 13.348759c-7.819159 33.146092-3.607631 69.238154 14.798113 101.060923 18.468759 31.996062 47.823426 53.773128 80.664944 63.519508v0.057764l13.112451 3.008984c18.468759 4.211528 36.391385 22.97961 39.762708 41.626913 0 0 3.008985 16.720082 3.008984 59.250216-0.120779 42.404103-3.129764 59.129436-3.129764 59.129435z m-423.410872-229.302482c-93.898174 0-170.052267 76.154092-170.052266 170.052267s76.154092 169.989251 170.052266 169.989251 170.047015-76.154092 170.047016-170.052266-76.148841-169.989251-170.047016-169.989252zM512 887.303877V-120.12307699999997M7.876923 384h1008.246154M11.048697 885.345149l1003.583016-1003.583016M1014.117087 886.117087l-1004.349702-1005.063877"  horiz-adv-x="1024" />

    
    <glyph glyph-name="dot" unicode="&#59043;" d="M512.32958984 751.2454834C309.46704102 751.2454834 145.08410644 586.8625488299999 145.08410644 384s164.38293458-367.2454834 367.2454834-367.2454834S879.57507325 181.21984863 879.57507325 384c0 202.86254883-164.46533203 367.2454834-367.24548341 367.2454834z"  horiz-adv-x="1024" />

    
    <glyph glyph-name="delete" unicode="&#58881;" d="M860.29743713 804.2635057699999L679.0620783 804.2635057699999 627.28054825 856.04503704 368.37289311 856.04503704 316.59136307 804.2635057699999 135.35600423 804.2635057699999 135.35600423 700.70044445 860.29743713 700.70044445M187.13753549 27.540542810000034C187.13753549-29.41914073999999 233.74091326-76.02251852999996 290.70059682-76.02251852999996L704.95284454-76.02251852999996C761.91252809-76.02251852999996 808.51590587-29.41914073999999 808.51590587 27.540542810000034L808.51590587 648.91891318 187.13753549 648.91891318 187.13753549 27.540542810000034Z"  horiz-adv-x="1024" />

    
    <glyph glyph-name="star-open" unicode="&#61118;" d="M299 12c-9 0-18 3-27 9-15 9-21 27-18 45l36 213-153 150c-12 12-18 30-12 48 6 18 21 30 36 30l213 30 96 192c9 15 24 27 42 27 18 0 33-9 42-27l96-192 213-30c18-3 33-15 36-30 6-18 0-36-12-48l-156-150 36-213c3-18-3-36-18-45-15-9-33-12-48-3L512 117l-192-99c-6-6-12-6-21-6z m213 168c6 0 9 0 15-3l180-96-33 201c-3 9 3 21 9 27l147 141-201 30c-9 0-18 9-24 15l-90 183-90-183c-3-9-12-15-24-15l-201-30 147-141c6-6 9-18 9-27l-33-201 180 96c0 3 3 3 9 3z m342 267zM500 705z"  horiz-adv-x="1024" />

    
    <glyph glyph-name="user" unicode="&#58882;" d="M351.29326994 684.0215749500001c23.02021577 28.06151506 51.41907008 46.31841617 77.81367216 58.16784171 12.70217372 5.70212835 26.0018631 9.75712889 39.24021895 12.46178157 14.61937052 2.98659315 29.24962261 4.31814579 42.93908405 4.40124344l0.07815182 0 0.63510907 0.00098897 0.63510909-0.00098897 0.07815181 0c13.68946047-0.08309859 28.31872357-1.41465028 42.93908405-4.40124344 13.23835585-2.70465265 26.53804523-6.75965322 39.24021896-12.46178157 26.39559105-11.84942651 54.79444537-30.10632763 77.81268318-58.16784171 18.29053574-22.29706228 33.06126409-50.5653339 40.56979174-86.38170357 5.33016451-25.42512163 7.03170113-54.08316337 4.60503214-82.1268712-2.30103212-26.617187-8.32269342-53.00783125-18.48739973-76.02112228-5.54087793-12.54290124-13.20768811-27.17216438-23.81261841-43.5484712-8.48987962-13.1077722-18.78417959-27.19194957-31.26178951-41.99928139-2.20606298-3.89968589-9.84121648-19.71606857 5.50031761-28.87666983 17.63564244-10.53172429 60.50844521-36.38618643 100.36398708-60.75675009 26.10969273-15.96477165 52.03933978-31.984943 70.6385269-43.83140165 13.54502737-8.62936592 29.81746144-19.49348365 43.43074899-33.42234636 15.171381-15.52257064 26.79030795-34.48481799 28.21188296-57.83544827 0.41845991-6.8605581 0.6103771-14.95769971 0.64302275-23.42284735 0.03462458-9.38516509-0.15234678-18.60413295-0.46198714-26.66467107-0.71622878-18.66249958-4.58326899-35.00220389-14.08417738-47.61336435-10.40707639-13.81410837-26.10672581-22.06062792-49.45142035-22.57603588l-0.39174903 0c-91.69109296 0.33239343-196.96678464 0.49858967-316.71840371 0.49858967s-225.02731073-0.16619623-316.7184037-0.49858967l-0.39076005 0c-23.34469551 0.51540796-39.04434398 8.76192751-49.4504314 22.57603588-9.50090935 12.61116048-13.36893854 28.95086479-14.08417738 47.61336435-0.30964037 8.06053812-0.49661173 17.28049593-0.46198713 26.66566102 0.03066677 8.46415865 0.2255528 16.56031031 0.64203379 23.42185836 1.42256397 23.35063127 13.04149189 42.31188867 28.21287191 57.83544829 13.61427652 13.92886271 29.88473168 24.79396941 43.430749 33.42234634 18.59720824 11.84546871 44.52487636 27.86366116 70.63160218 43.82843378 39.85752079 24.37056367 82.73329143 50.22700473 100.36992283 60.75971798 15.34153505 9.16159119 7.70638057 24.97698392 5.50031761 28.87666982-12.47563101 14.80733084-22.77092093 28.8915092-31.26080054 41.99928136-10.60591927 16.37630683-18.27371843 31.00556995-23.81261842 43.54847123-10.16470628 23.01329105-16.1863676 49.40393628-18.48838965 76.02112229-2.426669 28.04370782-0.72315349 56.70174954 4.60503214 82.12687117C318.23299579 633.45624105 333.00273419 661.72550163 351.29326994 684.0215749500001"  horiz-adv-x="1024" />

    
    <glyph glyph-name="external-link" unicode="&#59097;" d="M789.856 702.976L676.64 769.28c-16.64 10.144-21.632 30.432-11.648 45.664 9.984 16.896 29.952 21.952 44.928 11.84l196.384-115.456c9.12-3.52 16.384-10.976 19.648-20.352 2.272-6.08 2.688-12.672 1.056-18.944a33.984 33.984 0 0 0-6.656-13.664l-113.92-200.096c-4.992-11.84-16.64-16.896-28.288-16.896a31.744 31.744 0 0 0-16.64 5.056c-16.64 10.144-21.632 30.432-11.648 45.664l85.12 149.92c-228.32-29.952-406.24-229.6-406.24-469.408 0-18.56-14.976-33.792-33.28-33.792-18.272 0-33.28 15.2-33.28 33.792 0 261.12 184.576 480.544 427.68 530.336zM803.104-64H187.52C137.6-64 96-20.063999999999965 96 34.048V649.28c0 54.08 41.6 98.048 91.52 98.048h367.68c18.304 0 33.28-15.232 33.28-33.824 0-18.56-14.976-33.792-33.28-33.792H187.52c-13.312 0-24.96-13.536-24.96-30.432v-613.568c0-16.928 11.648-30.432 24.96-30.432h615.584c13.28 0 24.96 13.504 24.96 30.4V375.52c0 18.56 14.944 33.792 33.28 33.792 18.272 0 33.28-15.2 33.28-33.792v-341.44c0-54.08-41.6-98.048-91.52-98.048z"  horiz-adv-x="1024" />

    
    <glyph glyph-name="star" unicode="&#58887;" d="M915.771875 478.471875c-4.4475 13.68375-16.306875 23.71875-30.5596875 25.77l-234.4415625 34.095-104.90625 212.43375c-6.384375 12.885-19.498125 21.0946875-33.8653125 21.0946875-14.368125 0-27.4809375-8.2096875-33.86625-21.0946875l-104.90625-212.43375-234.440625-34.095c-14.25375-2.0521875-26.1121875-11.971875-30.5596875-25.77-4.4465625-13.6828125-0.684375-28.734375 9.5784375-38.769375L287.478125 274.3621875l-39.909375-233.5284375c-2.3953125-14.139375 3.42-28.5075 15.0515625-36.945a37.7409375 37.7409375 0 0 1 39.795-2.8509375L512.1125 111.30281249999996l209.6971875-110.265c5.473125-2.85 11.5171875-4.333125 17.5603125-4.333125 7.8684375 0 15.6215625 2.394375 22.235625 7.1840625 11.630625 8.4375 17.446875 22.8046875 15.0515625 36.945L736.634375 274.3621875l169.6734375 165.3403125c10.1484375 10.0340625 13.9115625 25.0865625 9.4640625 38.769375z"  horiz-adv-x="1024" />

    
    <glyph glyph-name="download" unicode="&#59213;" d="M704 554.666667h64a64 64 0 0 0 64-64v-362.666667a64 64 0 0 0-64-64H256a64 64 0 0 0-64 64V490.666667a64 64 0 0 0 64 64h64v-64h-64v-362.666667h512V490.666667h-64v64z m-154.794667 212.266666l0.042667-347.456 74.005333 74.026667 45.226667-45.248-150.826667-150.848-150.848 150.826667 45.248 45.269333 73.173334-73.173333V766.933333h64z"  horiz-adv-x="1024" />

    
    <glyph glyph-name="spinner" unicode="&#59222;" d="M533.333333 213.33333300000004v-192h-64v192h64z m-175.317333 72.618667l45.269333-45.269333-135.765333-135.744-45.248 45.226666 135.744 135.786667z m286.634667 0l135.744-135.765333-45.226667-45.248-135.786667 135.744 45.269334 45.269333zM330.666667 416v-64h-192v64h192z m533.333333 0v-64h-192v64h192z m-128.853333 247.061333l45.248-45.226666-135.744-135.786667-45.269334 45.269333 135.765334 135.744z m-467.626667 0l135.765333-135.744-45.269333-45.269333-135.744 135.765333 45.226667 45.248zM533.333333 746.666667v-192h-64V746.666667h64z"  horiz-adv-x="1024" />

    
    <glyph glyph-name="upload" unicode="&#59243;" d="M704 554.666667h64a64 64 0 0 0 64-64v-362.666667a64 64 0 0 0-64-64H256a64 64 0 0 0-64 64V490.666667a64 64 0 0 0 64 64h64v-64h-64v-362.666667h512V490.666667h-64v64zM517.653333 771.370667l150.826667-150.826667-45.226667-45.269333-74.026666 74.005333v-304.768h-64V648.384l-73.173334-73.130667-45.248 45.248 150.826667 150.848z"  horiz-adv-x="1024" />

    
    <glyph glyph-name="search" unicode="&#59315;" d="M469.333 704c153.174 0 277.334-124.16 277.334-277.333 0-68.054-24.534-130.411-65.216-178.688L846.336 77.75999999999999l-48.341-49.877L630.4 200.875a276.053 276.053 0 0 0-161.067-51.542C316.16 149.33299999999997 192 273.49300000000005 192 426.667S316.16 704 469.333 704z m0-64C351.51 640 256 544.49 256 426.667s95.51-213.334 213.333-213.334 213.334 95.51 213.334 213.334S587.157 640 469.333 640z"  horiz-adv-x="1024" />

    
    <glyph glyph-name="vertical-ellipsis" unicode="&#58884;" d="M580.26666667 642.8444448a59.73333333 59.73333333 0 1 0-119.46666667 0 59.73333333 59.73333333 0 0 0 119.46666667 0z m0-258.95822292a59.73333333 59.73333333 0 1 0-119.46666667-1e-8 59.73333333 59.73333333 0 0 0 119.46666667 1e-8z m0-258.95822188a59.73333333 59.73333333 0 1 0-119.46666667 0 59.73333333 59.73333333 0 0 0 119.46666667 0z"  horiz-adv-x="1024" />

    
    <glyph glyph-name="dot-open" unicode="&#59006;" d="M512.00411987 15.923126219999972c-202.96307373 0-368.08181763 165.11791992-368.08181763 368.08181763 0 202.95401001 165.1187439 368.07275391 368.08181763 368.07275391 202.95318604 0 368.07275391-165.1187439 368.07275391-368.07275391 0-202.96389771-165.11791992-368.08181763-368.07275391-368.08181763z m0 650.11019898c-155.51531982 0-282.03826904-126.5171814-282.03826904-282.02838135 0-155.51531982 126.52294922-282.03826904 282.03826904-282.03826904 155.51202393 0 282.02920532 126.52294922 282.02920533 282.03826904 0 155.51119995-126.5171814 282.02838135-282.02920533 282.02838135z"  horiz-adv-x="1024" />

    
    <glyph glyph-name="dot-half" unicode="&#58894;" d="M803.44319988 160.59947341999998c124.42810072 160.71962988 95.54300598 394.02231881-64.80630244 518.08009805S345.3552223 771.63032499 220.92712158 610.91069512 125.38411561 216.8883763 285.73342402 92.83059705999995s392.91135368-93.69139717 517.70977586 67.76887636zM269.43926786 573.5082001000001C373.12935192 707.56466621 567.54825924 733.48718704 700.86408168 630.16742518s157.75705597-297.36834771 53.69665046-432.16545675S456.82206223 38.02298149000001 323.13591832 141.34274406999998 165.74918454 439.08141324 269.43926786 573.5082001000001zM773.07681855 184.30006400000002L242.03546044 594.98686043 171.30401018 372.79382348l94.80236231-190.71568974 176.64346456-136.64871784 197.38148123 30.36638207 132.94550027 108.50426602z"  horiz-adv-x="1024" />

    
    <glyph glyph-name="-delete" unicode="&#61405;" d="M864.064 576L159.936 576C124.608 576.0319999999999 96 604.672 96 640L96 704C96 739.36 124.64 768 160 768L352 768 352 832C352 867.36 380.64 896 416 896L608 896C643.328 896 672 867.36 672 832L672 768 864 768C899.328 768 928 739.36 928 704L928 640C928 604.672 899.36 576.0319999999999 864.064 576ZM608 800C608 817.664 593.664 832 576 832L448 832C430.336 832 416 817.664 416 800L416 768 608 768 608 800ZM864 512L864 0C864-70.68799999999999 806.688-128 736-128L288-128C217.312-128 160-70.68799999999999 160 0L160 512 864 512ZM640 32C640 14.336000000000013 654.336 0 672 0 689.664 0 704 14.336000000000013 704 32L704 416C704 433.664 689.664 448 672 448 654.336 448 640 433.664 640 416L640 32ZM480 32C480 14.336000000000013 494.336 0 512 0 529.664 0 544 14.336000000000013 544 32L544 416C544 433.664 529.664 448 512 448 494.336 448 480 433.664 480 416L480 32ZM320 32C320 14.336000000000013 334.336 0 352 0 369.664 0 384 14.336000000000013 384 32L384 416C384 433.664 369.664 448 352 448 334.336 448 320 433.664 320 416L320 32Z"  horiz-adv-x="1024" />

    
    <glyph glyph-name="actions" unicode="&#61406;" d="M580.26666667 642.8444448a59.73333333 59.73333333 0 1 0-119.46666667 0 59.73333333 59.73333333 0 0 0 119.46666667 0z m0-258.95822292a59.73333333 59.73333333 0 1 0-119.46666667-1e-8 59.73333333 59.73333333 0 0 0 119.46666667 1e-8z m0-258.95822188a59.73333333 59.73333333 0 1 0-119.46666667 0 59.73333333 59.73333333 0 0 0 119.46666667 0z"  horiz-adv-x="1024" />

    
    <glyph glyph-name="list" unicode="&#58940;" d="M1283.42857168 705.42857168H447.71428584a64.28571416 64.28571416 0 0 0 0 128.57142832h835.71428584a64.28571416 64.28571416 0 0 0 0-128.57142832zM704.85714248 319.71428584H447.71428584a64.28571416 64.28571416 0 0 0 0 128.57142832h257.14285664a64.28571416 64.28571416 0 0 0 0-128.57142832zM1283.42857168-66H447.71428584a64.28571416 64.28571416 0 0 0 0 128.57142832h835.71428584a64.28571416 64.28571416 0 0 0 0-128.57142832zM190.57142832 705.42857168H126.28571416a64.28571416 64.28571416 0 0 0 0 128.57142832h64.28571416a64.28571416 64.28571416 0 0 0 0-128.57142832zM190.57142832 319.71428584H126.28571416a64.28571416 64.28571416 0 0 0 0 128.57142832h64.28571416a64.28571416 64.28571416 0 0 0 0-128.57142832zM190.57142832-66H126.28571416a64.28571416 64.28571416 0 0 0 0 128.57142832h64.28571416a64.28571416 64.28571416 0 0 0 0-128.57142832z"  horiz-adv-x="1462" />

    
    <glyph glyph-name="folder" unicode="&#61403;" d="M928 640H544l-128 128H96C42.98 768 0 725.02 0 672v-576c0-53.02 42.98-96 96-96h832c53.02 0 96 42.98 96 96V544c0 53.02-42.98 96-96 96z"  horiz-adv-x="1024" />

    
    <glyph glyph-name="chevron-beginning" unicode="&#59244;" d="M394.3 582v-396c0-17.6-14.4-32-32-32s-32 14.4-32 32V582c0 17.6 14.4 32 32 32s32-14.4 32-32zM439.8 362.29999999999995l1.8-1.8 21.8-21.8L639.1 163c12.4-12.5 32.8-12.5 45.2-0.1 12.4 12.5 12.4 32.9 0 45.3L508.6 384l175.8 175.7c12.4 12.5 12.4 32.9 0 45.3-12.5 12.4-32.9 12.4-45.3 0L463.4 429.3l-21.5-21.5-2.2-2.2c-5.2-5.7-8.3-13.2-8.3-21.5-0.1-8.4 3.1-16.1 8.4-21.8z"  horiz-adv-x="1024" />

    
    <glyph glyph-name="error" unicode="&#58926;" d="M301.030718 520.563309C278.035962 524.613522 282.086175 490.643996 282.086175 490.643996c4.050213-47.687989 54.612546-79.567082 54.612545-79.567083 10.844118-6.924557 48.471901-4.050213 48.471901-4.050212a23.517364 23.517364 0 0 0 23.517365-16.200851v-43.637776c0.783912-6.532601 10.060206-5.748689 10.060205-5.748689-0.783912-6.793905 9.66825-11.236074 9.66825-11.236074s1.30652 13.065202 0.783912-1.698477a16.462155 16.462155 0 0 1 13.065203-16.984763c-0.783912-8.884338 16.200851-13.065202 16.200851-13.065202 3.658257-10.060206 28.351489-5.226081 28.351489-5.226081 8.492382-8.492382 24.301276 0 24.301276 0 10.060206-6.924557 27.436925 2.351736 27.436925 2.351736a32.92431 32.92431 0 0 1 26.130405 5.356733 15.286287 15.286287 0 0 1 18.291283 14.502375c10.060206-2.482388 13.065202 14.110419 13.065203 14.110419 8.492382-2.351736 11.236074 13.065202 11.236074 13.065202 2.482388-1.95978 8.100425 1.698476 8.100425 1.698476l1.30652 45.858861c1.30652 22.994756 44.682992 13.065202 44.682993 13.065202 57.356238 3.788909 80.220343 82.833383 80.220342 82.833383 11.497378 34.361482-16.592807 34.361482-16.592807 34.361482 22.994756 30.572574 26.130405 121.114426 26.130405 121.114426 5.095429 108.310528-20.512368 140.189622-20.512368 140.189622C622.173392 908.077212 522.747202 895.66527 522.747202 895.66527c-105.828139 3.919561-166.973286-49.647769-209.043238-91.456417s-40.763431-145.28505-40.763431-145.285051a270.057733 270.057733 0 0 1 28.090185-138.360493z m298.27857 71.989265c16.592807 4.834125 28.351489-4.050213 48.471901-5.356733s19.859108 0 38.019739-17.768675 5.748689-70.813397 5.748689-70.813397a44.291036 44.291036 0 0 0-45.728208-39.195607 125.817899 125.817899 0 0 0-68.722965 25.085189c-20.251064 16.200851-28.743445 60.753191-28.743445 60.753191a81.134907 81.134907 0 0 0 50.954289 47.296032zM506.938307 503.709198a7.839121 7.839121 0 0 0 10.844118 0A97.205106 97.205106 0 0 0 550.053475 408.855829s-28.743445-27.436925-36.84387 6.924557c0 0-16.200851-33.969526-40.763432-3.2663C471.662261 412.252782 458.597059 458.63425 506.938307 503.709198z m-167.103938 65.326012c18.291283 18.291283 17.899327 16.592807 38.019739 17.768675s32.009746 10.190858 48.602553 5.356733a81.134907 81.134907 0 0 0 50.954289-47.296032s-8.492382-44.55234-28.743445-60.753191A125.817899 125.817899 0 0 0 380.205844 459.418162a44.291036 44.291036 0 0 0-45.728208 39.195607s-12.803898 52.652766 5.356733 70.421441zM916.793706-10.537166999999954s-8.753686 29.266053-35.406698 27.828881a454.669043 454.669043 0 0 0-80.742951 5.226081c-18.421935 5.356733-99.687494 39.195607-227.334521 113.797912 57.094934 35.014742 181.998269 99.42619 212.832146 112.360741s91.456417 6.009993 91.456417 6.009993C904.904372 255.47035300000005 915.879142 281.60075800000004 926.200652 305.37942599999997a40.110171 40.110171 0 0 1-14.894331 49.909073c-10.97477 7.969773-16.331503 4.703473-21.557584 26.914317s-9.929554 26.130405-9.929554 26.130405c-27.044969 32.27105-73.949045-13.065202-73.949045-13.065203-9.406946-9.01499-7.577817-15.286287-7.577818-15.286286-44.291036-79.828387-271.886861-198.721728-287.434452-206.56085-15.155635 7.839121-242.620808 126.732463-286.519888 206.822154 0 0 1.829128 6.271297-7.708469 15.286287 0 0-46.773425 45.336252-73.818394 13.065202 0 0-4.180865-3.527605-9.929554-26.130405s-10.97477-18.944543-22.080192-26.914317a40.240823 40.240823 0 0 1-14.24107-50.170377C107.143115 281.60075800000004 117.856581 255.47035300000005 145.032202 254.68644099999995c0 0 60.622539 6.924557 91.456416-6.009993s155.60656-77.345998 212.701495-112.360741c-127.777679-74.732958-209.043238-108.44118-227.465173-113.797912a454.146435 454.146435 0 0 0-80.742951-5.226081C114.59028 18.72888599999999 105.836594-10.537166999999954 105.836594-10.537166999999954a40.502127 40.502127 0 0 0-10.582813-16.462155c-12.150638-16.723459 24.693232-31.879094 24.693232-31.879094a20.251064 20.251064 0 0 0 18.683239-22.472148c-1.567824-27.828881 11.758682-37.366479 11.758683-37.366479 50.692985-21.29628 71.989265 3.527605 71.989265 3.527605 4.572821 10.582814 56.702978 57.748195 56.702978 57.748194 7.577817 13.065202 143.717226 99.948798 232.299298 155.345256C599.831896 42.50755400000003 735.971305-45.02930200000003 743.679775-58.09450400000003c0 0 52.26081-47.165381 56.572326-57.748195 0 0 21.426932-24.823885 71.989265-3.527604 0 0 13.065202 9.537598 11.889334 37.366479A20.120412 20.120412 0 0 0 902.813939-58.878416000000016s36.974523 15.155635 24.823885 31.879094a41.677996 41.677996 0 0 0-10.844118 16.462155z"  horiz-adv-x="1024" />

    
    <glyph glyph-name="list-grouped" unicode="&#59421;" d="M149.333333 640a42.666667 42.666667 0 1 1 42.666667-42.666667 42.666667 42.666667 0 0 1-42.666667 42.666667z m170.666667-85.333333h597.333333a42.666667 42.666667 0 0 1 0 85.333333h-597.333333a42.666667 42.666667 0 0 1 0-85.333333z m0-128a42.666667 42.666667 0 1 1 42.666667-42.666667 42.666667 42.666667 0 0 1-42.666667 42.666667z m170.666667-213.333334a42.666667 42.666667 0 1 1 42.666666-42.666666 42.666667 42.666667 0 0 1-42.666666 42.666666z m426.666666 213.333334h-426.666666a42.666667 42.666667 0 0 1 0-85.333334h426.666666a42.666667 42.666667 0 0 1 0 85.333334z m0-213.333334h-256a42.666667 42.666667 0 0 1 0-85.333333h256a42.666667 42.666667 0 0 1 0 85.333333z"  horiz-adv-x="1024" />

    
    <glyph glyph-name="fill-play" unicode="&#59183;" d="M512 746.666667c200.298667 0 362.666667-162.368 362.666667-362.666667s-162.368-362.666667-362.666667-362.666667S149.333333 183.70133299999998 149.333333 384 311.701333 746.666667 512 746.666667z m-50.56-234.666667c-19.2 0-34.773333-15.573333-34.773333-34.773333v-182.997334a34.773333 34.773333 0 0 1 53.546666-29.248l143.808 92.394667a34.773333 34.773333 0 0 1-0.256 58.666667l-143.808 90.602666a34.773333 34.773333 0 0 1-18.538666 5.354667z"  horiz-adv-x="1024" />

    
    <glyph glyph-name="fill-info" unicode="&#59184;" d="M512 746.666667c200.298667 0 362.666667-162.368 362.666667-362.666667s-162.368-362.666667-362.666667-362.666667S149.333333 183.70133299999998 149.333333 384 311.701333 746.666667 512 746.666667z m32-298.666667h-64v-256h64V448z m0 106.666667h-64v-64h64v64z"  horiz-adv-x="1024" />

    
    <glyph glyph-name="fill-stop" unicode="&#59192;" d="M512 746.666667c200.298667 0 362.666667-162.368 362.666667-362.666667s-162.368-362.666667-362.666667-362.666667S149.333333 183.70133299999998 149.333333 384 311.701333 746.666667 512 746.666667z m53.333333-256h-106.666666a53.333333 53.333333 0 0 1-53.333334-53.333334v-106.666666a53.333333 53.333333 0 0 1 53.333334-53.333334h106.666666a53.333333 53.333333 0 0 1 53.333334 53.333334v106.666666a53.333333 53.333333 0 0 1-53.333334 53.333334z"  horiz-adv-x="1024" />

    
    <glyph glyph-name="chevron-right" unicode="&#59203;" d="M593.450667 383.87199999999996L360.064 617.386667l45.290667 45.226666 278.613333-278.762666L405.333333 105.38666699999999l-45.226666 45.269333z"  horiz-adv-x="1024" />

    
    <glyph glyph-name="chevron-left" unicode="&#59204;" d="M641.28 617.386667l-45.226667 45.226666-278.634666-278.762666 278.613333-278.485334 45.248 45.269334-233.365333 233.237333z"  horiz-adv-x="1024" />

    
    <glyph glyph-name="chevron-up" unicode="&#59205;" d="M500.8 434.090667L267.306667 200.70399999999995l-45.226667 45.269333 278.741333 278.613334L779.306667 245.97333300000003l-45.248-45.226666z"  horiz-adv-x="1024" />

    
    <glyph glyph-name="list-flat" unicode="&#59207;" d="M256 161.89866700000005v-64H170.666667v64h85.333333z m597.333333 0v-64H298.666667v64h554.666666zM256 402.816v-64H170.666667v64h85.333333z m597.333333 0v-64H298.666667v64h554.666666zM256 643.754667v-64H170.666667v64h85.333333z m597.333333 0v-64H298.666667v64h554.666666z"  horiz-adv-x="1024" />

    
    <glyph glyph-name="x" unicode="&#59208;" d="M282.517333 682.624l-45.354666-45.162667L489.472 384 237.162667 130.53866700000003l45.354666-45.162667L534.613333 338.64533300000005l252.096-253.269333 45.354667 45.162667-252.288 253.44 252.288 253.482666-45.354667 45.162667L534.613333 429.376l-252.096 253.226667z"  horiz-adv-x="1045" />

    
    <glyph glyph-name="code" unicode="&#59209;" d="M541.141333 627.136l61.717334-16.938667-132.394667-482.474666-61.717333 16.938666 132.394666 482.474667zM329.002667 597.333333l44.885333-45.610666-175.36-172.586667 175.04-167.573333-44.266667-46.229334L106.666667 378.496 329.002667 597.333333z m355.882666 0l222.336-218.837333L684.586667 165.333333l-44.266667 46.229334 175.018667 167.573333L640 551.722667 684.885333 597.333333z"  horiz-adv-x="1024" />

    
    <glyph glyph-name="info" unicode="&#59230;" d="M512 746.666667c200.298667 0 362.666667-162.368 362.666667-362.666667s-162.368-362.666667-362.666667-362.666667S149.333333 183.70133299999998 149.333333 384 311.701333 746.666667 512 746.666667z m0-64c-164.949333 0-298.666667-133.717333-298.666667-298.666667s133.717333-298.666667 298.666667-298.666667 298.666667 133.717333 298.666667 298.666667-133.717333 298.666667-298.666667 298.666667z m32-234.666667v-256h-64V448h64z m0 106.666667v-64h-64v64h64z"  horiz-adv-x="1024" />

    
    <glyph glyph-name="checkmark" unicode="&#59235;" d="M235.946667 423.061333l-45.226667-45.312 210.090667-209.514666 432.362666 427.690666-45.013333 45.482667-387.157333-382.976z"  horiz-adv-x="1024" />

    
    <glyph glyph-name="warning" unicode="&#59245;" d="M543.082667 734.826667a64 64 0 0 0 24.853333-24.853334l317.909333-572.224A64 64 0 0 0 829.866667 42.66666699999996H194.133333a64 64 0 0 0-55.957333 95.082666L456.064 709.973333a64 64 0 0 0 87.018667 24.853334zM512 678.890667L194.112 106.66666699999996H829.866667L512 678.890667zM544 234.66666699999996v-64h-64v64h64z m0 276.437333V277.33333300000004h-64V511.104h64z"  horiz-adv-x="1024" />

    
    <glyph glyph-name="circle-plus" unicode="&#58945;" d="M512 753.140625q156.56835938-4.11328125 260.79785156-108.34277344T881.140625 384q-4.11328125-156.56835938-108.34277344-260.79785156T512 14.859375q-156.56835938 4.11328125-260.79785156 108.34277344T142.859375 384q4.11328125 156.56835938 108.34277344 260.79785156T512 753.140625z m-31.29785156-337.84277344h-121.94824219q-13.18359375 0-22.25390625-9.0703125T327.4296875 383.97363281t9.0703125-22.25390625 22.25390625-9.0703125h121.94824219v-121.94824218q0-13.18359375 9.0703125-22.25390626t22.25390625-9.0703125 22.25390625 9.0703125 9.0703125 22.25390625v121.94824219h121.94824218q13.18359375 0 22.25390626 9.0703125t9.0703125 22.25390625-9.0703125 22.25390625-22.25390625 9.0703125h-121.94824219v121.94824219q0 13.18359375-9.0703125 22.25390625T512.02636719 568.5703125t-22.25390625-9.0703125-9.0703125-22.25390625v-121.94824219z"  horiz-adv-x="1024" />

    
    <glyph glyph-name="logging" unicode="&#59035;" d="M465.87 173.91999999999996c-21.79 0-39.52-17.74-39.52-39.52s17.73-39.52 39.52-39.52c21.79 0 39.52 17.73 39.52 39.52s-17.72 39.52-39.52 39.52zM864.83 596.1800000000001L649.39 787.31l-25.8 9.79h-332c-82.2 0-149.07-66.87-149.07-149.07v-531.19c0-82.19 66.87-149.06 149.07-149.06h437.24c82.2 0 149.07 66.87 149.07 149.06V567.1l-13.07 29.08z m-250.81 3.67l0.26 114.68 154.77-137.31H642.23c-6.6 0-18.42 0.81-23.45 6.24-4.17 4.5-4.96 13.46-4.76 16.39z m-272.68-518.9c0-18.67-15.14-33.8-33.81-33.8s-33.81 15.13-33.81 33.8V236.05999999999995c0 18.67 15.14 33.81 33.81 33.81s33.81-15.14 33.81-33.81v-155.11z m124.53-33.81c-48.11 0-87.25 39.14-87.25 87.25s39.14 87.25 87.25 87.25 87.25-39.14 87.25-87.25-39.14-87.25-87.25-87.25z m289.71 79.87c-3.77-44.66-41.26-79.86-86.87-79.86-48.11 0-87.25 39.14-87.25 87.25s39.14 87.25 87.25 87.25c5.88 0 11.78-0.59 17.52-1.76l-0.02-0.09c11.46-1.74 20.28-11.55 20.28-23.5 0-13.18-10.68-23.86-23.86-23.86-2.04 0-3.99 0.33-5.88 0.82l-0.03-0.13c-2.62 0.54-5.31 0.8-8.02 0.8-21.79 0-39.52-17.74-39.52-39.52s17.73-39.52 39.52-39.52c13.37 0 25.16 6.71 32.32 16.91h-14.67c-11.53 0-20.88 9.35-20.88 20.88s9.35 20.88 20.88 20.88h49.22c11.53 0 20.88-9.35 20.88-20.88 0-1.99-0.36-3.86-0.87-5.67z m44.58 173.23H220.28v347.8c0 39.33 31.99 71.32 71.32 71.32h245.19c-0.05-0.82-0.24-1.6-0.24-2.43V605.9c-0.73-10.89-0.86-46.03 24.01-73.96 13.18-14.81 38.05-32.46 81.68-32.46h157.93v-199.24z"  horiz-adv-x="1024" />

    
    <glyph glyph-name="file" unicode="&#58986;" d="M842.24 583.253333l-189.44 213.333334a42.666667 42.666667 0 0 1-31.573333 14.08h-341.333334A107.946667 107.946667 0 0 1 170.666667 704v-640A107.946667 107.946667 0 0 1 279.893333-42.66666699999996h464.213334A107.946667 107.946667 0 0 1 853.333333 64V554.666667a42.666667 42.666667 0 0 1-11.093333 28.586666zM597.333333 725.333333l159.573334-170.666666h-128a33.706667 33.706667 0 0 0-31.573334 36.266666z"  horiz-adv-x="1024" />

    
    <glyph glyph-name="chevron-end" unicode="&#58880;" d="M629.7 186l0 396c0 17.6 14.4 32 32 32s32-14.4 32-32L693.7 186c0-17.6-14.4-32-32-32s-32 14.4-32 32zM584.2 405.7l-1.8 1.8-21.8 21.8L384.9 605c-12.4 12.5-32.8 12.5-45.2 0.1-12.4-12.5-12.4-32.9 0-45.3L515.40000001 384l-175.80000001-175.7c-12.4-12.5-12.4-32.9 0-45.3 12.5-12.4 32.9-12.4 45.3 0L560.6 338.70000000000005l21.5 21.5 2.2 2.20000001c5.2 5.7 8.3 13.2 8.3 21.49999999 0.1 8.4-3.1 16.1-8.4 21.8z"  horiz-adv-x="1024" />

    
    <glyph glyph-name="close" unicode="&#61404;" d="M282.517333 682.624l-45.354666-45.162667L489.472 384 237.162667 130.53866700000003l45.354666-45.162667L534.613333 338.64533300000005l252.096-253.269333 45.354667 45.162667-252.288 253.44 252.288 253.482666-45.354667 45.162667L534.613333 429.376l-252.096 253.226667z"  horiz-adv-x="1045" />

    
    <glyph glyph-name="plus" unicode="&#58980;" d="M853.333333 416H544V725.333333c0 17.066667-14.933333 32-32 32s-32-14.933333-32-32v-309.333333H170.666667c-17.066667 0-32-14.933333-32-32s14.933333-32 32-32h309.333333V42.66666699999996c0-17.066667 14.933333-32 32-32s32 14.933333 32 32V352H853.333333c17.066667 0 32 14.933333 32 32s-14.933333 32-32 32z"  horiz-adv-x="1024" />

    
    <glyph glyph-name="minus" unicode="&#59002;" d="M853.333333 352H170.666667c-17.066667 0-32 14.933333-32 32s14.933333 32 32 32h682.666666c17.066667 0 32-14.933333 32-32s-14.933333-32-32-32z"  horiz-adv-x="1024" />

    
    <glyph glyph-name="sort-up" unicode="&#59018;" d="M533.62933374 803.76495333l250.28228759-250.28228759c12.35961937-12.35961937 12.35961937-30.89904809 0-43.25866675-6.17980933-6.17980933-13.90457153-9.26971435-21.62933374-9.26971436H263.26266455c-16.99447655 0-30.89904809 13.90457153-30.89904737 30.89904809 0 7.7247622 3.08990502 15.44952368 9.26971435 21.62933302l248.73733473 250.28228759c12.35961937 12.35961937 30.89904809 12.35961937 43.25866748 0z"  horiz-adv-x="1024" />

    
    <glyph glyph-name="sort-down" unicode="&#59019;" d="M488.92871068 17.31738310000003L221.96093725 284.28515653c-13.183594 13.183594-13.183594 32.95898463 0 46.14257787 6.59179662 6.59179662 14.83154297 9.88769531 23.07128931 9.88769532h532.28759791c18.12744166 0 32.95898463-14.83154297 32.95898387-32.95898463 0-8.23974635-3.29589869-16.47949193-9.88769531-23.07128856L535.07128932 17.31738310000003c-13.183594-13.183594-32.95898463-13.183594-46.14257864 0z"  horiz-adv-x="1024" />

    
    <glyph glyph-name="sort" unicode="&#59028;" d="M273.066667 490.666667h475.733333c10.666667 0 21.333333 4.266667 29.866667 12.8 17.066667 17.066667 17.066667 42.666667 0 59.733333L541.866667 802.133333c-17.066667 17.066667-42.666667 17.066667-59.733334 0L243.2 563.2c-8.533333-8.533333-12.8-19.2-12.8-29.866667 0-23.466667 19.2-42.666667 42.666667-42.666666zM750.933333 277.33333300000004H273.066667c-10.666667 0-21.333333-4.266667-29.866667-12.8-17.066667-17.066667-17.066667-42.666667 0-59.733333l238.933333-238.933333c17.066667-17.066667 42.666667-17.066667 59.733334 0l238.933333 238.933333c8.533333 8.533333 12.8 19.2 12.8 29.866667 0 23.466667-19.2 42.666667-42.666667 42.666666z"  horiz-adv-x="1024" />

    


  </font>
</defs>
</svg>
